<?xml version="1.0" encoding="utf-8"?>
<!-- Generator: Adobe Illustrator 24.1.0, SVG Export Plug-In . SVG Version: 6.00 Build 0)  -->
<svg version="1.1" id="Ebene_1" xmlns="http://www.w3.org/2000/svg" xmlns:xlink="http://www.w3.org/1999/xlink" x="0px" y="0px"
	 viewBox="0 0 39 44" enable-background="new 0 0 39 44" xml:space="preserve">
<g>
	<path d="M27.0000019,25.5H11.9999981C7.0294366,25.5,3,29.5294361,3,34.5v6.5214844c0,0.8284264,0.6715722,1.5,1.4999986,1.5
		h0.0000029c0.8284264,0,1.4999986-0.6715736,1.4999986-1.5V34.5c0-3.3137093,2.6862907-6,5.9999981-6h15.0000038
		C30.3137093,28.5,33,31.1862907,33,34.5v6.5214844c0,0.8284264,0.6715736,1.5,1.5,1.5l0,0c0.8284264,0,1.5-0.6715736,1.5-1.5V34.5
		C36,29.5294361,31.9705639,25.5,27.0000019,25.5z"/>
	<path d="M19.5,24.5214844c6.3413086,0,11.5-5.1591797,11.5-11.5s-5.1586914-11.5-11.5-11.5S8,6.6806641,8,13.0214844
		S13.1586914,24.5214844,19.5,24.5214844z M11,13.0214844c0-4.6865234,3.8129883-8.5,8.5-8.5s8.5,3.8134766,8.5,8.5
		s-3.8129883,8.5-8.5,8.5S11,17.7080078,11,13.0214844z"/>
</g>
</svg>
