<?xml version="1.0" encoding="utf-8"?>
<!-- Generator: Adobe Illustrator 24.0.3, SVG Export Plug-In . SVG Version: 6.00 Build 0)  -->
<svg version="1.1" id="Ebene_1" xmlns="http://www.w3.org/2000/svg" xmlns:xlink="http://www.w3.org/1999/xlink" x="0px" y="0px"
	 viewBox="0 0 48 48" enable-background="new 0 0 48 48" xml:space="preserve">
<g>
	<path d="M37.6923141,18.5H11.3076849c-1.9329929,0-3.4999928-1.5669994-3.4999928-3.4999924V15
		c0-1.932992,1.5669999-3.4999924,3.4999928-3.4999924h26.3846283c1.9329948,0,3.4999924,1.5670004,3.4999924,3.4999924v0.0000076
		C41.1923065,16.9330006,39.625309,18.5,37.6923141,18.5z"/>
	<path d="M37.6923141,28.5H11.3076849c-1.9329929,0-3.4999928-1.5669994-3.4999928-3.4999924V25
		c0-1.9329929,1.5669999-3.4999924,3.4999928-3.4999924h26.3846283c1.9329948,0,3.4999924,1.5669994,3.4999924,3.4999924v0.0000076
		C41.1923065,26.9330006,39.625309,28.5,37.6923141,28.5z"/>
	<path d="M37.6923141,38.5H11.3076849c-1.9329929,0-3.4999928-1.5670013-3.4999928-3.4999924V35
		c0-1.932991,1.5669999-3.4999924,3.4999928-3.4999924h26.3846283c1.9329948,0,3.4999924,1.5670013,3.4999924,3.4999924v0.0000076
		C41.1923065,36.9329987,39.625309,38.5,37.6923141,38.5z"/>
</g>
</svg>
