<?xml version="1.0" encoding="utf-8"?>
<!-- Generator: Adobe Illustrator 24.1.0, SVG Export Plug-In . SVG Version: 6.00 Build 0)  -->
<svg version="1.1" xmlns="http://www.w3.org/2000/svg" xmlns:xlink="http://www.w3.org/1999/xlink" x="0px" y="0px"
	 viewBox="0 0 194.9471283 174.9300232" enable-background="new 0 0 194.9471283 174.9300232" xml:space="preserve">
<g id="Ebene_2">
</g>
<g id="Ebene_1">
	<path fill="none" d="M165.5830688,135.9671783l0.1478271,1.6824951h1.4035034l-0.5751953-3.0551147
		C166.2404785,135.0571442,165.9108276,135.5114288,165.5830688,135.9671783z"/>
	<path fill="#FFFFFF" enable-background="new    " d="M30.5121498,85.850235
		c1.8278809,0.0136719,15.8250122-0.2810669,15.8250122-0.2810669c1.0116577-1.5175171,0.7478027-3.9746704,0.4145508-5.5853271
		c-0.8586426-0.4041138-1.7076416-0.9190674-2.5306396-1.5756226c-2.6054077-2.0783081-4.9967041-7.5407715-6.6102295-12.7339478
		l0.0109863,0.069458c0.0317993,0.2017212-0.1663208,0.3273926-0.2733765,0.1727295
		c-0.8458862-1.2230225-2.8426514-4.3453941-2.3276978-6.9556847c0.2089233-1.059021,0.4264526-1.5249023,0.6262207-1.6721802
		c-0.0211182-0.1663208-0.0419922-0.3322754-0.0574341-0.4906616c-0.2741089-1.897644-0.4721069-4.9562378-0.0620117-8.6467285
		c0.4106445-3.6959229-0.0823364-5.8205566,4.1575317-5.8205566c0.8314819,0-0.8314819-4.9890747,6.6520996-4.9890747
		c3.0019531,0,9.2338867,1.4498901,10.6903687,2.5457153c0.4370728,0.3289185,1.0331421,0.3688965,1.4830933,0.0579224
		c0.6494141-0.4487305,2.6276245-1.0513916,5.288208,0.7224121c2.4945717,1.6630249,3.3260536,9.1466064,3.3260536,9.1466064
		s-0.0001221,1.3492432-0.0578003,2.8457031c0.0298462-0.168457,0.050354-0.291626,0.0578003-0.3511963
		c0,0-0.0286865,0.2944336-0.0747681,0.7557373c-0.0558472,1.2338867-0.1533203,2.4936523-0.3239136,3.1295776
		c-0.0264893,0.2459106-0.0532837,0.4912109-0.0802002,0.7346191c0.319458-0.3936157,0.814209-0.4840698,1.3104248,1.5006714
		c0.6525269,2.6102905-1.7677002,5.7326622-2.8395996,6.9556847c-0.0258789,0.02948-0.0578003,0.0402832-0.0892334,0.0508423
		c-1.4323769,5.0526123-3.7650185,10.5500488-6.6024818,13.0063477c-0.4772949,0.413208-0.9927979,0.7810059-1.5360107,1.1047974
		c-0.2265015,2.3691406,0.5534668,4.4814453,1.0891724,6.0221558c0,0,6.6577187-0.0288086,11.1105995,0.0124512
		c1.0784912-3.953125,2.6295776-6.9182129,4.8553467-8.2415771c1.1937866-0.7098389,12.6072998-0.706604,14.2280884-0.7025146
		c0.0358276-0.12146,0.0991211-0.2094116,0.1975708-0.2522583c1.8853149-0.8201904,1.9831543-3.5145874,1.7984619-5.3953247
		c-3.6898804-1.7296143-6.9646606-5.5405273-8.4575195-11.8109093c-0.0037231-0.0042725-0.0084839-0.0036011-0.0119629-0.008606
		c-0.6403809-0.9258423-2.1519165-3.2894897-1.762085-5.2655029c0.338623-1.7163696,0.7074585-1.3850098,0.9081421-1.0002441
		c-0.104126-1.3287354-0.2241211-2.914978-0.2415161-3.0529175c-0.263855-1.5666504-0.4777222-4.246521-0.0921021-7.4978638
		c0.3677979-3.1004028,4.5744019-2.3009644,2.8456421-5.6814575c-1.0216675-1.9978638-0.875-1.1990967,5.8265991-1.1990967
		c2.6883545,0,4.4127808-6.0117207,10.5812988-0.0518188c0.3443604,0.3327026,2.4119873-0.9343872,2.8149414-1.1952515
		c0.581543-0.3764648,3.5617065,1.0234375,4.572876,2.7346191c1.3398438,2.267395,1.654541,6.7880859,1.654541,6.7880859
		s-0.0001831,1.1318359-0.0518188,2.387207c0.0267334-0.1412964,0.045105-0.2446899,0.0518188-0.2946167
		c0,0-0.0257568,0.2470093-0.0670166,0.6339111c-0.0499878,1.0351562-0.1372681,2.0919189-0.2901001,2.6253662
		c-0.0403442,0.3508301-0.1121216,2.0420532-0.1723022,3.2336426c0.2019653,0.0386963,0.4610596,0.3441772,0.781189,1.2182617
		c0.7005005,1.9125366-0.8710327,4.4569702-1.579834,5.463562c-0.0055542,0.0078735-0.0140991,0.0083008-0.0203857,0.0146484
		c-1.413269,6.1858482-4.5563965,9.9830284-8.144043,11.7918053c0.1082764,2.5131226,1.5977783,5.0146484,3.0551758,5.5625
		c0.0866699,0.0325928,0.1421509,0.1193848,0.1749268,0.2434082c1.5429077-0.0818481,13.055603-0.6581421,14.4597778,0.3088989
		c1.637146,1.1275024,2.9989624,2.8900146,4.1593018,5.0971069c0.1004028-1.8955078,0.2072754-4.147522,0.3169556-6.8580933
		c0.2617188-6.4657593-0.3583984-20.9284019,3.4869995-26.0453453c5.9476242-7.9142456,12.0728073-8.1113281,14.9019699-7.2695312
		c0.151123,0.0449829,0.2974854,0.0765381,0.4453735,0.0216675c1.7828369-0.6622314,14.6015625-0.3563843,18.0454712,7.7958984
		c4.5827026,10.8480835,2.8370972,12.8963013,2.6160889,20.5512657c-0.050415,1.7472534,0.4370117,10.2310791,0.4370117,10.2310791
		l0.7457275,5.9660034c0.9277954,0.0862427,1.612854,0.2176514,1.8934326,0.4108887
		c7.3511353,5.0627441,9.3079834,18.7285156,11.1487427,31.6560669c3.8598633-9.5912476,6.0048218-20.0571289,6.0048218-31.029541
		c0-45.94244-37.2436523-83.1860962-83.1860886-83.1860962c-45.9423866,0-83.1860352,37.2436523-83.1860352,83.1860962
		c0,7.7422485,1.0802612,15.2279663,3.05902,22.3394775C19.8196449,97.6004181,23.2285194,85.7958527,30.5121498,85.850235z"/>
	<path fill="#FFFFFF" enable-background="new    " d="M98.0203934,170.6510773
		c24.5414429,0,46.5947189-10.6327515,61.8208542-27.536438H36.1995888
		C51.425724,160.0183258,73.4789505,170.6510773,98.0203934,170.6510773z"/>
	<path fill="#FFFFFF" enable-background="new    " d="M164.5029907,123.6737823l1.0800781,12.293396
		c0.3277588-0.4557495,0.6574097-0.9100342,0.9761353-1.3726196L164.5029907,123.6737823z"/>
	<path opacity="0.623" fill="#FFFFFF" enable-background="new    " d="M29.8598061,117.3031158l-0.8398438,8.8053589
		c0.2443237,0.0205688,0.4903564,0.039978,0.7381592,0.0587158L29.8598061,117.3031158z"/>
	<path fill="#E5BC93" d="M95.3555374,80.3133698c3.4039917-0.069458,5.7437744-1.2606812,7.0143433-3.6752319
		c0,0,0.0636597-0.00354,0.1749268-0.0094604c-0.0327759-0.1240234-0.0882568-0.2108154-0.1749268-0.2434082
		c-1.4573975-0.5478516-2.9468994-3.0493774-3.0551758-5.5625c-1.5325928,0.7727051-3.1418457,1.2000122-4.736084,1.2713623
		v0.0037842c-0.0084839-0.0003662-0.0171509-0.0015259-0.0256958-0.0018921
		c-0.0084839,0.0003662-0.0171509,0.0015259-0.0256958,0.0018921v-0.0037842
		c-1.4639282-0.0655518-2.9401855-0.439209-4.3588867-1.104187c0.1846924,1.8807373,0.086853,4.5751343-1.7984619,5.3953247
		c-0.0984497,0.0428467-0.1617432,0.1307983-0.1975708,0.2522583c0.1243286,0.0003052,0.1975708,0.0006104,0.1975708,0.0006104
		C89.1939774,78.2041168,91.2461014,80.3972321,95.3555374,80.3133698z"/>
	<path fill="#EFCBA2" d="M108.0625076,49.3292427c-0.7445679-1.1226807-5.901123-2.1477661-7.3903809-7.0305786
		c-0.569397-1.8670044-2.736084-2.1381226-6.117981-2.1278076c-1.6271973,0.0050049-2.96698-0.1417236-4.1763916,0.0848999
		c-2.3270264,0.4359741-4.9000854,1.1161499-4.9000854,4.6038818c0,1.880249-4.4766846,2.8688965-4.4668579,5.5950928
		c0.0118408,0.0456543,0.2680054,4.5899048,0.2800903,4.6366577l-0.010376-0.0130005l0.6252441,3.9613037
		c0.0230713,0.1461792-0.1122437,0.234314-0.1949463,0.1393433c1.4928589,6.2703819,4.7676392,10.081295,8.4575195,11.8109093
		c1.4187012,0.664978,2.8949585,1.0386353,4.3588867,1.104187v0.0037842
		c0.0085449-0.0003662,0.0172119-0.0015259,0.0256958-0.0018921c0.0085449,0.0003662,0.0172119,0.0015259,0.0256958,0.0018921
		v-0.0037842c1.5942383-0.0713501,3.2034912-0.4986572,4.736084-1.2713623
		c3.5876465-1.8087769,6.7307739-5.605957,8.144043-11.7918053c-0.0956421,0.0965576-0.2675171,0.0285645-0.2541504-0.1168823
		l0.5358887-5.8539429c0,0,0.0457764-0.2047729,0.1370239-0.3983154c0.0720825-0.9019775,0.1638794-2.0091553,0.1593018-1.7351074
		c-0.0020142,0.121521,0.059082-1.5567017,0.059082-1.5567017
		C108.0847855,49.3564034,108.0739822,49.3465157,108.0625076,49.3292427z M97.5960159,65.9182892
		c-2.5526733,2.1218262-3.8921509,1.9133301-6.0838013-0.0236816
		C94.0430374,65.8070221,94.7809525,66.0157013,97.5960159,65.9182892z M85.0957108,52.0819283
		c2.2839966-2.2915649,4.6154175-1.7226562,7.8320923-0.7913208C90.1466141,51.5099678,87.5434036,50.7451973,85.0957108,52.0819283
		z M96.1573563,51.4329414c3.1816406-1.0447388,5.4914551-1.6958618,7.8551636,0.5134277
		C101.5190506,50.6971016,98.9445267,51.553669,96.1573563,51.4329414z"/>
	<path fill="#FEFEFE" d="M91.5122147,65.8946075c2.1916504,1.9370117,3.5311279,2.1455078,6.0838013,0.0236816
		C94.7809525,66.0157013,94.0430374,65.8070221,91.5122147,65.8946075z"/>
	<path fill="#EFCBA2" d="M92.927803,51.2906075c-3.2166748-0.9313354-5.5480957-1.5002441-7.8320923,0.7913208
		C87.5434036,50.7451973,90.1466141,51.5099678,92.927803,51.2906075z"/>
	<linearGradient id="SVGID_1_" gradientUnits="userSpaceOnUse" x1="85.0957108" y1="51.2790756" x2="92.927803" y2="51.2790756">
		<stop  offset="0" style="stop-color:#086378"/>
		<stop  offset="0.1505198" style="stop-color:#0E6579"/>
		<stop  offset="1" style="stop-color:#2A6F7F"/>
	</linearGradient>
	<path fill="url(#SVGID_1_)" d="M92.927803,51.2906075c-3.2166748-0.9313354-5.5480957-1.5002441-7.8320923,0.7913208
		C87.5434036,50.7451973,90.1466141,51.5099678,92.927803,51.2906075z"/>
	<path fill="#EFCBA2" d="M104.0125198,51.9463692c-2.3637085-2.2092896-4.6735229-1.5581665-7.8551636-0.5134277
		C98.9445267,51.553669,101.5190506,50.6971016,104.0125198,51.9463692z"/>
	<linearGradient id="SVGID_2_" gradientUnits="userSpaceOnUse" x1="96.1573563" y1="51.2076073" x2="104.0125198" y2="51.2076073">
		<stop  offset="0" style="stop-color:#075E72"/>
		<stop  offset="0.1726598" style="stop-color:#0E6174"/>
		<stop  offset="1" style="stop-color:#2A6F7F"/>
	</linearGradient>
	<path fill="url(#SVGID_2_)" d="M104.0125198,51.9463692c-2.3637085-2.2092896-4.6735229-1.5581665-7.8551636-0.5134277
		C98.9445267,51.553669,101.5190506,50.6971016,104.0125198,51.9463692z"/>
	<path fill="#EFCBA2" d="M35.6303749,57.0891304c-0.0140991-0.0892944-0.0270386-0.1958618-0.0408325-0.2911987
		c0.0154419,0.1583862,0.0363159,0.3243408,0.0574341,0.4906616c0.0036621-0.0026855,0.0072021-0.0028687,0.0108032-0.0053711
		C35.6499672,57.2213326,35.637516,57.1493721,35.6303749,57.0891304z"/>
	<path fill="#E5BC93" d="M65.0275955,65.4358673c0.0314331-0.0105591,0.0633545-0.0213623,0.0892334-0.0508423
		c1.0718994-1.2230225,3.4921265-4.3453941,2.8395996-6.9556847c-0.4962158-1.9847412-0.9909668-1.8942871-1.3104248-1.5006714
		c-0.1279297,1.1582642-0.257019,2.2470703-0.3526001,2.8637085C66.0364456,61.4502754,65.6023636,63.4083443,65.0275955,65.4358673
		z"/>
	<path fill="#E5BC93" d="M35.6469765,57.2885933c-0.1997681,0.1472778-0.4172974,0.6131592-0.6262207,1.6721802
		c-0.5149536,2.6102905,1.4818115,5.7326622,2.3276978,6.9556847c0.1070557,0.1546631,0.3051758,0.0289917,0.2733765-0.1727295
		l-0.0109863-0.069458c-0.7927246-2.5515099-1.3928833-5.024044-1.7406006-7.0115929
		C35.7769203,58.1819038,35.7021523,57.7224922,35.6469765,57.2885933z"/>
	<path fill="#EFCBA2" d="M66.2934036,56.4663277c-0.831543-1.3383179-4.9890785-3.3260498-6.6521034-9.1466064
		c-0.6358643-2.225647-4.5824585-2.9621582-8.3589478-2.9498291c-1.8170776,0.0059204-7.7521973,1.0166626-9.1027832,1.2868042
		c-2.5984497,0.5196533-2.4945068,1.6630249-2.4945068,5.8205566c0,2.1570435-3.3342285,3.0221558-3.576416,5.9799194
		c-0.0094604,0.1157837-0.0237427,0.2283325-0.0233154,0.350769c0.0866089,0.3557129,0.1781006,0.7379761,0.2736816,1.1528931
		c0.1334839,0.5792847,0.3131714,1.3364868,0.5372314,2.185791c0.9563599,3.624691,2.7318115,8.9450645,5.2833252,9.4553795
		c4.1575928,0.8314819,4.9067383-2.4945679,9.1466064-2.4945679c4.9890747,0,5.8206177,3.3260498,8.3151245,2.4945679
		c2.3120728-0.770752,5.2213173-6.8932457,6.4182167-12.7164879c0.0291138-0.1415405,0.1358643-0.6803589,0.2711182-1.3706055
		C66.3181839,56.4986763,66.30616,56.4868965,66.2934036,56.4663277z M40.5186195,54.8697701
		c2.1414185-2.8479004,5.086792-2.6888428,8.3118896-1.2252197C46.1541176,54.5807076,42.9669228,53.1701851,40.5186195,54.8697701z
		 M52.9282875,53.5738716c3.2486572-1.4106445,6.196167-1.5215454,8.2907104,1.3609619
		C58.7988319,53.1955147,55.5890541,54.553669,52.9282875,53.5738716z"/>
	<path fill="#E5BC93" d="M35.6577797,57.2832222c-0.0036011,0.0025024-0.0071411,0.0026855-0.0108032,0.0053711
		c0.0551758,0.4338989,0.1299438,0.8933105,0.2232666,1.3740845C35.7843056,58.1714668,35.7114296,57.7069283,35.6577797,57.2832222
		z"/>
	<path fill="#E5BC93" d="M56.8891029,79.5470123c-2.8842773,1.7190552-6.5992432,2.1019897-10.1373901,0.4368286
		c0.333252,1.6106567,0.5971069,4.0678101-0.4145508,5.5853271c0.6497803,1.2348022,2.8337402,1.4154663,4.7922363,1.4369507
		c0.0234375-0.0491333,0.0426636-0.0899658,0.0313721-0.0682373l3.1352539,0.0689697
		c0.0234375,0.0136719,0.0427246,0.0299072,0.0656738,0.0438843c1.3924561-0.0015869,3.0090942-0.208374,3.6165771-1.4815674
		C57.4425697,84.0284576,56.6626015,81.916153,56.8891029,79.5470123z"/>
	<path fill="#1454CE" d="M48.8305092,53.6445503c-3.2250977-1.463623-6.1704712-1.6226807-8.3118896,1.2252197
		C42.9669228,53.1701851,46.1541176,54.5807076,48.8305092,53.6445503z"/>
	<path fill="#1454CE" d="M61.218998,54.9348335c-2.0945435-2.8825073-5.0420532-2.7716064-8.2907104-1.3609619
		C55.5890541,54.553669,58.7988319,53.1955147,61.218998,54.9348335z"/>
	<path fill="#FEFEFE" d="M48.1959267,75.3307648c0.2998047,0.4164429,0.6192627,0.7689209,0.949646,1.0686035
		c0.5175171,0.4694824,1.06427,0.7912598,1.619873,0.9532471c0.8306274,0.2420654,1.6772461,0.1268311,2.4678345-0.3897705
		c0.2399902-0.1568604,0.4754028-0.34552,0.7026978-0.5774536c0.2483521-0.253418,0.4882812-0.5504761,0.7162476-0.8965454
		L48.1959267,75.3307648z"/>
	<linearGradient id="SVGID_3_" gradientUnits="userSpaceOnUse" x1="15.0464525" y1="138.9824982" x2="15.0464525" y2="85.5594025">
		<stop  offset="0" style="stop-color:#5AB4D0"/>
		<stop  offset="0.9987599" style="stop-color:#81C9D0"/>
	</linearGradient>
	<path fill="url(#SVGID_3_)" d="M15.0182543,133.322525c0,0,0.0288086,0.0213013,0.0563965,0.041626
		c-0.0134277-0.0740967-0.0194092-0.1500854-0.0276489-0.2254639
		C15.0372972,133.1972809,15.0280199,133.2653961,15.0182543,133.322525z"/>
	<path opacity="0.623" fill="#FFFFFF" enable-background="new    " d="M66.5025101,135.1132965
		c-0.1466675,0.2338867-0.0325928,0.5608521,0.0296631,0.8601074c0.0300293-0.3469238,0.057373-0.7086792,0.0805054-1.0947876
		C66.5780716,134.9557037,66.5567703,135.0267487,66.5025101,135.1132965z"/>
	<path opacity="0.623" fill="#FFFFFF" enable-background="new    " d="M58.5551796,137.6496735h2.6714478
		c-0.6726685-0.0922852-1.2831421-0.2182007-1.7493896-0.348938
		C59.1847572,137.4207306,58.8757362,137.5366974,58.5551796,137.6496735z"/>
	<linearGradient id="SVGID_4_" gradientUnits="userSpaceOnUse" x1="59.8909035" y1="138.9824982" x2="59.8909035" y2="85.5594025">
		<stop  offset="0" style="stop-color:#5AB4D0"/>
		<stop  offset="0.9987599" style="stop-color:#81C9D0"/>
	</linearGradient>
	<path fill="url(#SVGID_4_)" d="M58.5551796,137.6496735h2.6714478c-0.6726685-0.0922852-1.2831421-0.2182007-1.7493896-0.348938
		C59.1847572,137.4207306,58.8757362,137.5366974,58.5551796,137.6496735z"/>
	<path opacity="0.623" fill="#FFFFFF" enable-background="new    " d="M64.7902908,137.6496735h1.5403442
		c0.0548706-0.3322144,0.1032715-0.6981201,0.1456299-1.0962524
		C66.2581253,137.1399078,65.6257401,137.4819489,64.7902908,137.6496735z"/>
	<path fill="#E5BC93" d="M52.6234169,87.0068512c0.4251709,0,1.057251,0.0446777,1.7382812,0.0438843
		c-0.0229492-0.0139771-0.0422363-0.0302124-0.0656738-0.0438843l-3.1352539-0.0689697
		c0.0112915-0.0217285-0.0079346,0.019104-0.0313721,0.0682373C51.6547279,87.0118561,52.1646767,87.0068512,52.6234169,87.0068512z
		"/>
	<path opacity="0.623" fill="#FFFFFF" enable-background="new    " d="M50.8413734,87.4391022
		c-1.5914307,2.163208-1.5192871,4.0123291,0.897583,6.1610718c0.7106934,0.6318359-3.0841675,24.4077148-3.0449219,25.6914062
		c-0.258667,4.1224976,6.3008423,7.7124023,6.3008423,7.7124023s5.8729858-4.0979614,5.1478271-7.9902954
		c-0.1226196-0.8322754-5.9285278-24.8250732-5.4219971-25.3582764c1.8023071-1.8973389,2.0712891-4.7926636,0.0078735-6.3595581
		C53.524662,87.4511261,52.1412392,87.4979401,50.8413734,87.4391022z"/>
	<path fill="#E5BC93" d="M141.6271362,81.9988556c-0.0085449-0.0003662-0.0172729-0.0015259-0.0258179-0.0018921
		c-0.008606,0.0003662-0.0172729,0.0015259-0.0258789,0.0018921v-0.0037842
		c-1.4492188-0.0645142-2.9310913-0.4738159-4.3686523-1.1921997c0.1966553,1.883667,0.1273804,4.6498413-1.7885742,5.4833374
		c0.1928711,0.7922974,3.1002808,3.4505615,7.2428589,3.5253296c4.1170654,0.0744019,6.7571411-3.5253296,6.7571411-3.5253296
		c-1.4793091-0.5560303-2.9955444-3.1248779-3.0629272-5.6756592c-1.5488892,0.8380127-3.1574707,1.3145752-4.7281494,1.3845215
		V81.9988556z"/>
	<path fill="#EFCBA2" d="M153.9370728,58.7239571c-0.5254517-2.0302734-4.30896-7.5163574-14.472168-11.7329712
		c-0.2088013-0.0866089-0.4387817-0.2070312-0.6228638-0.0757446c-7.0551758,5.0311279-7.7672119,5.8468628-8.4315186,8.5272827
		c-2.1021118,8.4819336-1.9155884,12.5045738-1.0664673,15.0128746c0.7005005,2.0690918,1.8514404,3.1089478,2.5452271,4.7609863
		c0.2434082,0.5796509,0.4301147,1.1528931,0.5911865,1.72229c1.4224854,1.7410278,3.0415649,3.0223389,4.7263184,3.8641968
		c1.437561,0.7183838,2.9194336,1.1276855,4.3686523,1.1921997v0.0037842
		c0.008606-0.0003662,0.0172729-0.0015259,0.0258789-0.0018921c0.0085449,0.0003662,0.0172729,0.0015259,0.0258179,0.0018921
		v-0.0037842c1.5706787-0.0699463,3.1792603-0.5465088,4.7281494-1.3845215
		c1.2969971-0.7017212,2.5441895-1.6731567,3.6904907-2.9140625c0.1543579-0.7128906,0.4051514-1.494812,0.7277832-2.4801025
		c0.2255249-0.6885986,0.5214233-1.4069824,0.8439941-2.1558838
		C153.2116089,69.3594513,155.5213623,64.8451691,153.9370728,58.7239571z M141.8209229,77.8291168
		c-1.0344849-0.0143433-2.0128784-0.7427979-3.2322998-2.0855103c2.7653809-0.1192017,3.5717163,0.164856,6.6477661,0.0322266
		c-1.0252075,1.0616455-1.8706665,1.6911621-2.6497803,1.9364014
		C142.3253784,77.7945099,142.0713501,77.8325958,141.8209229,77.8291168z M151.4874268,58.7494698
		c-3.8530273-3.8430176-7.0373535,0.4749756-7.9436035-1.6553955
		C147.1763306,56.1444283,149.3565674,55.4768867,151.4874268,58.7494698z M139.875061,57.0934029
		c-0.9553833,2.0817871-4.0430298-2.1287842-7.9857788,1.6305542
		C134.0959473,55.5246162,136.262146,56.1725655,139.875061,57.0934029z"/>
	<path fill="#EFCBA2" d="M143.5438232,57.0940742c0.90625,2.1303711,4.0905762-2.1876221,7.9436035,1.6553955
		C149.3565674,55.4768867,147.1763306,56.1444283,143.5438232,57.0940742z"/>
	
		<linearGradient id="SVGID_5_" gradientUnits="userSpaceOnUse" x1="93.5337906" y1="14.4995012" x2="101.8938904" y2="14.4995012" gradientTransform="matrix(0.9666958 -0.0668921 -0.0668921 1.072974 54.0419769 48.6436195)">
		<stop  offset="0" style="stop-color:#1E1F45"/>
		<stop  offset="0.9973338" style="stop-color:#04116F"/>
	</linearGradient>
	<path fill="url(#SVGID_5_)" d="M143.5438232,57.0940742c0.90625,2.1303711,4.0905762-2.1876221,7.9436035,1.6553955
		C149.3565674,55.4768867,147.1763306,56.1444283,143.5438232,57.0940742z"/>
	<path fill="#EFCBA2" d="M131.8892822,58.7239571c3.942749-3.7593384,7.0303955,0.4512329,7.9857788-1.6305542
		C136.262146,56.1725655,134.0959473,55.5246162,131.8892822,58.7239571z"/>
	
		<linearGradient id="SVGID_6_" gradientUnits="userSpaceOnUse" x1="108.2125244" y1="112.4809418" x2="116.5885086" y2="112.4809418" gradientTransform="matrix(0.9651101 0.0500848 0.0500848 1.0480354 21.756506 -65.8812637)">
		<stop  offset="0" style="stop-color:#1E1F45"/>
		<stop  offset="0.9973338" style="stop-color:#04116F"/>
	</linearGradient>
	<path fill="url(#SVGID_6_)" d="M131.8892822,58.7239571c3.942749-3.7593384,7.0303955,0.4512329,7.9857788-1.6305542
		C136.262146,56.1725655,134.0959473,55.5246162,131.8892822,58.7239571z"/>
	<path fill="#FEFEFE" d="M145.2363892,75.7758331c-3.0760498,0.1326294-3.8823853-0.1514282-6.6477661-0.0322266
		c1.2194214,1.3427124,2.1978149,2.071167,3.2322998,2.0855103c0.2565308-0.0427246,0.5124512-0.0823364,0.765686-0.1168823
		C143.3657227,77.4669952,144.2111816,76.8374786,145.2363892,75.7758331z"/>
	<path fill="#FEFEFE" d="M141.8209229,77.8291168c0.2504272,0.003479,0.5044556-0.0346069,0.765686-0.1168823
		C142.333374,77.7467804,142.0774536,77.7863922,141.8209229,77.8291168z"/>
	<path opacity="0.623" fill="#FFFFFF" enable-background="new    " d="M152.3532104,86.4404449
		c-0.005249-0.0112915-0.0106812-0.0228271-0.0159302-0.0340576c-0.123291,0.0046997-0.2471313,0.0093384-0.3648682,0.0140381
		L152.3532104,86.4404449z"/>
	<linearGradient id="SVGID_7_" gradientUnits="userSpaceOnUse" x1="127.4215775" y1="86.4234161" x2="156.8946075" y2="86.4234161">
		<stop  offset="0" style="stop-color:#181938"/>
		<stop  offset="0.9973338" style="stop-color:#18183A"/>
	</linearGradient>
	<path fill="url(#SVGID_7_)" d="M152.3532104,86.4404449c-0.005249-0.0112915-0.0106812-0.0228271-0.0159302-0.0340576
		c-0.123291,0.0046997-0.2471313,0.0093384-0.3648682,0.0140381L152.3532104,86.4404449z"/>
	<path opacity="0.623" fill="#FFFFFF" enable-background="new    " d="M68.5556107,137.6496735h-2.2249756
		c-0.069458,0.4206543-0.1482544,0.7931519-0.2403564,1.0995483c0,0,0.2426758-0.017395,2.74823-0.0652466
		c-0.1763916-0.2836914-0.2828979-0.6156006-0.2828979-0.9742432V137.6496735z"/>
	<polygon opacity="0.623" fill="#FFFFFF" enable-background="new    " points="119.6478348,137.6496735 118.6738358,137.6496735 
		118.6751175,137.6643219 	"/>
	
		<linearGradient id="SVGID_8_" gradientUnits="userSpaceOnUse" x1="119.1608353" y1="139.2399139" x2="119.1608353" y2="86.2848816">
		<stop  offset="0" style="stop-color:#277081"/>
		<stop  offset="0.0758406" style="stop-color:#257284"/>
		<stop  offset="0.9973338" style="stop-color:#0D84A0"/>
	</linearGradient>
	<polygon fill="url(#SVGID_8_)" points="119.6478348,137.6496735 118.6738358,137.6496735 118.6751175,137.6643219 	"/>
	<linearGradient id="SVGID_9_" gradientUnits="userSpaceOnUse" x1="4.1460967" y1="137.6569977" x2="189.6813965" y2="137.6569977">
		<stop  offset="0" style="stop-color:#317FE8"/>
		<stop  offset="0.3135964" style="stop-color:#2770DF"/>
		<stop  offset="0.9986979" style="stop-color:#1454CE"/>
	</linearGradient>
	<polygon fill="url(#SVGID_9_)" points="119.6478348,137.6496735 118.6738358,137.6496735 118.6751175,137.6643219 	"/>
	<path opacity="0.623" fill="#FFFFFF" enable-background="new    " d="M120.0676346,137.6510162l-0.0002441-0.0013428h-0.0463257
		C120.037117,137.6499786,120.0520706,137.650589,120.0676346,137.6510162z"/>
	
		<linearGradient id="SVGID_10_" gradientUnits="userSpaceOnUse" x1="120.0443497" y1="139.2399139" x2="120.0443497" y2="128.4977264">
		<stop  offset="0" style="stop-color:#277081"/>
		<stop  offset="0.0758406" style="stop-color:#257284"/>
		<stop  offset="0.9973338" style="stop-color:#0D84A0"/>
	</linearGradient>
	<path fill="url(#SVGID_10_)" d="M120.0676346,137.6510162l-0.0002441-0.0013428h-0.0463257
		C120.037117,137.6499786,120.0520706,137.650589,120.0676346,137.6510162z"/>
	
		<linearGradient id="SVGID_11_" gradientUnits="userSpaceOnUse" x1="4.1460967" y1="137.6503448" x2="189.6813965" y2="137.6503448">
		<stop  offset="0" style="stop-color:#317FE8"/>
		<stop  offset="0.3135964" style="stop-color:#2770DF"/>
		<stop  offset="0.9986979" style="stop-color:#1454CE"/>
	</linearGradient>
	<path fill="url(#SVGID_11_)" d="M120.0676346,137.6510162l-0.0002441-0.0013428h-0.0463257
		C120.037117,137.6499786,120.0520706,137.650589,120.0676346,137.6510162z"/>
	<polygon opacity="0.623" fill="#FFFFFF" enable-background="new    " points="118.6751175,137.6643219 118.6738358,137.6496735 
		115.9886551,137.6496735 115.9886551,137.7046661 	"/>
	
		<linearGradient id="SVGID_12_" gradientUnits="userSpaceOnUse" x1="117.3318863" y1="139.3344116" x2="117.3318863" y2="76.3839417">
		<stop  offset="0" style="stop-color:#164487"/>
		<stop  offset="0.4402282" style="stop-color:#164194"/>
	</linearGradient>
	<polygon fill="url(#SVGID_12_)" points="118.6751175,137.6643219 118.6738358,137.6496735 115.9886551,137.6496735 
		115.9886551,137.7046661 	"/>
	
		<linearGradient id="SVGID_13_" gradientUnits="userSpaceOnUse" x1="117.3318863" y1="139.2399139" x2="117.3318863" y2="86.2848816">
		<stop  offset="0" style="stop-color:#277081"/>
		<stop  offset="0.0758406" style="stop-color:#257284"/>
		<stop  offset="0.9973338" style="stop-color:#0D84A0"/>
	</linearGradient>
	<polygon fill="url(#SVGID_13_)" points="118.6751175,137.6643219 118.6738358,137.6496735 115.9886551,137.6496735 
		115.9886551,137.7046661 	"/>
	
		<linearGradient id="SVGID_14_" gradientUnits="userSpaceOnUse" x1="4.1460967" y1="137.6771698" x2="189.6813965" y2="137.6771698">
		<stop  offset="0" style="stop-color:#317FE8"/>
		<stop  offset="0.3135964" style="stop-color:#2770DF"/>
		<stop  offset="0.9986979" style="stop-color:#1454CE"/>
	</linearGradient>
	<polygon fill="url(#SVGID_14_)" points="118.6751175,137.6643219 118.6738358,137.6496735 115.9886551,137.6496735 
		115.9886551,137.7046661 	"/>
	<path fill="#0017BC" d="M119.8914871,137.6460114l-0.2436523,0.0036621h0.37323
		C119.976265,137.64888,119.9401932,137.6452789,119.8914871,137.6460114z"/>
	<path fill="#0017BC" d="M112.809639,139.5706329l0.4208374-0.0076294h-0.7267456
		C112.5973587,139.568985,112.6987381,139.5726471,112.809639,139.5706329z"/>
	<path fill="#0017BC" d="M120.0676346,137.6510162c-0.015564-0.0004272-0.0305176-0.0010376-0.0465698-0.0013428h-0.37323
		l-0.9727173,0.0146484l-2.6864624,0.0403442v0.0050659c0,0.2409058-0.0493774,0.4695435-0.1329956,0.6806641
		c-0.0170898,0.0430908-0.038147,0.083374-0.0582886,0.1247559c-0.1646729,0.3389282-0.4282227,0.6165161-0.7548218,0.8013916
		l2.2694702-0.6373901l0.4748535-0.1334229l0.9424438-0.2646484l1.383728-0.3886719l0.3434448-0.0964355
		C120.6875687,137.7310333,120.4670486,137.6631622,120.0676346,137.6510162z"/>
	<path opacity="0.623" fill="#FFFFFF" enable-background="new    " d="M113.8499832,139.5517731l-0.6195068,0.0112305h0.9049072
		c0.3314209,0,0.6380005-0.0940552,0.9071655-0.24646l-0.6183472,0.173645
		C114.3033524,139.5241852,114.0854568,139.5475006,113.8499832,139.5517731z"/>
	
		<linearGradient id="SVGID_15_" gradientUnits="userSpaceOnUse" x1="4.1460967" y1="139.4397736" x2="189.6813965" y2="139.4397736">
		<stop  offset="0" style="stop-color:#317FE8"/>
		<stop  offset="0.3135964" style="stop-color:#2770DF"/>
		<stop  offset="0.9986979" style="stop-color:#1454CE"/>
	</linearGradient>
	<path fill="url(#SVGID_15_)" d="M113.8499832,139.5517731l-0.6195068,0.0112305h0.9049072
		c0.3314209,0,0.6380005-0.0940552,0.9071655-0.24646l-0.6183472,0.173645
		C114.3033524,139.5241852,114.0854568,139.5475006,113.8499832,139.5517731z"/>
	<path fill="#EFCBA2" d="M66.6126785,134.8786163c0.149231-0.3328857,0.1463623-0.5983887,0.0444336-0.8626709
		c-0.0447388-0.1160278-0.102417-0.2338867-0.1696167-0.3607178c0.225769-0.2566528,0.1205444-1.350647-0.4824219-1.784729
		c0.0869141-0.5366211,0.2539673-1.2661743-0.6879272-1.8988037c-0.6589966-0.442688-0.3199463-0.975708-0.8824463-1.3310547
		c-0.9269447-0.5855713-3.9173012-0.2020264-5.6954384,0.0947266c1.65625,1.1410522,1.8777466,8.0945435,0.8130493,8.5369873
		c-0.0236206,0.0098267-0.0512695,0.0186157-0.0750732,0.0283813c0.4662476,0.1307373,1.0767212,0.2566528,1.7493896,0.348938
		c1.1729126,0.1609497,2.5126343,0.2109985,3.5636635,0c0.8354492-0.1677246,1.4678345-0.5097656,1.6859741-1.0962524
		c0.0275269-0.0739136,0.0701294-0.1389771,0.0835571-0.2210083c0.0175781-0.107605-0.0010376-0.2312622-0.0276489-0.3590088
		c-0.0622559-0.2992554-0.1763306-0.6262207-0.0296631-0.8601074
		C66.5567703,135.0267487,66.5780716,134.9557037,66.6126785,134.8786163z"/>
	<path fill="#E5BC93" d="M109.0589676,53.5527534c-0.3201294-0.8740845-0.5792236-1.1795654-0.781189-1.2182617
		c-0.015564-0.0029907-0.0310059-0.0060425-0.0458984-0.0059204c-0.1553955,0.0011597-0.2731934,0.1611938-0.3543701,0.333252
		c-0.0912476,0.1935425-0.1370239,0.3983154-0.1370239,0.3983154l-0.5358887,5.8539429
		c-0.0133667,0.1454468,0.1585083,0.2134399,0.2541504,0.1168823c0.0062866-0.0063477,0.0148315-0.0067749,0.0203857-0.0146484
		C108.1879349,58.0097237,109.7594681,55.4652901,109.0589676,53.5527534z"/>
	<path fill="#E5BC93" d="M81.2805252,55.0783882l-0.2845459-1.8029175c0,0-0.0313721-0.1029053-0.0841064-0.2277222
		c-0.0195923-0.0462646-0.041626-0.0944824-0.0669556-0.1430664c-0.2006836-0.3847656-0.569519-0.7161255-0.9081421,1.0002441
		c-0.3898315,1.9760132,1.1217041,4.3396606,1.762085,5.2655029c0.003479,0.0050049,0.0082397,0.0043335,0.0119629,0.008606
		c0.0827026,0.0949707,0.2180176,0.0068359,0.1949463-0.1393433L81.2805252,55.0783882z"/>
	
		<linearGradient id="SVGID_16_" gradientUnits="userSpaceOnUse" x1="127.4215775" y1="82.0584564" x2="156.8946075" y2="82.0584564">
		<stop  offset="0" style="stop-color:#181938"/>
		<stop  offset="0.9973338" style="stop-color:#18183A"/>
	</linearGradient>
	<path fill="url(#SVGID_16_)" d="M150.0457764,77.6964874c-1.1463013,1.2409058-2.3934937,2.2123413-3.6904907,2.9140625
		c0.0673828,2.5507812,1.5836182,5.1196289,3.0629272,5.6756592l2.5541992,0.1342163
		c0.1177368-0.0046997,0.2415771-0.0093384,0.3648682-0.0140381
		C150.0421753,81.4834137,149.5617065,79.931839,150.0457764,77.6964874z"/>
	
		<linearGradient id="SVGID_17_" gradientUnits="userSpaceOnUse" x1="127.4215775" y1="81.6877899" x2="156.8946075" y2="81.6877899">
		<stop  offset="0" style="stop-color:#181938"/>
		<stop  offset="0.9973338" style="stop-color:#18183A"/>
	</linearGradient>
	<path fill="url(#SVGID_17_)" d="M137.2067871,80.8028717c-1.6847534-0.8418579-3.303833-2.1231689-4.7263184-3.8641968
		c0.9904785,3.5020752,0.5151367,6.7798462-0.4224243,9.49823l3.3601685-0.1506958
		C137.3341675,85.452713,137.4034424,82.6865387,137.2067871,80.8028717z"/>
	
		<linearGradient id="SVGID_18_" gradientUnits="userSpaceOnUse" x1="141.5750732" y1="94.8402863" x2="141.5750732" y2="-507.2420959">
		<stop  offset="0" style="stop-color:#1E1F45"/>
		<stop  offset="0.9973338" style="stop-color:#04116F"/>
	</linearGradient>
	<path fill="url(#SVGID_18_)" d="M162.1594849,86.4276276l-0.7457275-5.9660034c0,0-0.4874268-8.4838257-0.4370117-10.2310791
		c0.2210083-7.6549644,1.9666138-9.7031822-2.6160889-20.5512657c-3.4439087-8.1522827-16.2626343-8.4581299-18.0454712-7.7958984
		c-0.1478882,0.0548706-0.2942505,0.0233154-0.4453735-0.0216675c-2.8291626-0.8417969-8.9543457-0.6447144-14.9019699,7.2695312
		c-3.8453979,5.1169434-3.2252808,19.579586-3.4869995,26.0453453c-0.1096802,2.7105713-0.2165527,4.9625854-0.3169556,6.8580933
		c-0.1205444,2.2769165-0.2313843,4.024231-0.3244019,5.3147583c-0.1741943,2.4168701-0.2868042,3.2911987-0.2868042,3.2911987
		h3.7276611h5.8335495c0.1916504-0.3310547,0.3878174-0.6911011,0.5835571-1.0657959
		c0.4355469-0.8334961,0.8678589-1.7651978,1.2408447-2.7868652c0.0282593-0.0773926,0.0533447-0.1588135,0.0809326-0.2371826
		c0.0131836-0.0375977,0.0258179-0.0760498,0.0388184-0.1138916c0.937561-2.7183838,1.4129028-5.9961548,0.4224243-9.49823
		c-0.1610718-0.569397-0.3477783-1.1426392-0.5911865-1.72229c-0.6937866-1.6520386-1.8447266-2.6918945-2.5452271-4.7609863
		c-0.8491211-2.5083008-1.0356445-6.530941,1.0664673-15.0128746c0.6643066-2.6804199,1.3763428-3.4961548,8.4315186-8.5272827
		c0.184082-0.1312866,0.4140625-0.0108643,0.6228638,0.0757446c10.163208,4.2166138,13.9467163,9.7026978,14.472168,11.7329712
		c1.5842896,6.121212-0.7254639,10.6354942-2.319519,14.336544c-0.3225708,0.7489014-0.6184692,1.4672852-0.8439941,2.1558838
		c-0.3226318,0.9852905-0.5734253,1.7672119-0.7277832,2.4801025c-0.4840698,2.2353516-0.0036011,3.7869263,2.2915039,8.7098999
		c0.005249,0.0112305,0.0106812,0.0227661,0.0159302,0.0340576l0.0641632,0.1374435l0.0571136,0.1222
		c0.4877319,1.0421753,1.0507812,2.2265015,1.7016602,3.5979614l2.5580444-0.1113281l5.8632812-0.255249L162.1594849,86.4276276z"/>
	<linearGradient id="SVGID_19_" gradientUnits="userSpaceOnUse" x1="94.5541306" y1="55.0913887" x2="94.5541306" y2="29.7306385">
		<stop  offset="0" style="stop-color:#008EAE"/>
		<stop  offset="0.36731" style="stop-color:#11829B"/>
		<stop  offset="1" style="stop-color:#2A6F7F"/>
	</linearGradient>
	<path fill="url(#SVGID_19_)" d="M108.8071976,43.7489815c0,0-0.3146973-4.5206909-1.654541-6.7880859
		c-1.0111694-1.7111816-3.991333-3.111084-4.572876-2.7346191c-0.4029541,0.2608643-2.4705811,1.5279541-2.8149414,1.1952515
		c-6.1685181-5.9599018-7.8929443,0.0518188-10.5812988,0.0518188c-6.7015991,0-6.8482666-0.7987671-5.8265991,1.1990967
		c1.7287598,3.3804932-2.4778442,2.5810547-2.8456421,5.6814575c-0.3856201,3.2513428-0.1717529,5.9312134,0.0921021,7.4978638
		c0.017395,0.1379395,0.1373901,1.7241821,0.2415161,3.0529175c0.0253296,0.048584,0.0473633,0.0968018,0.0669556,0.1430664
		c0.0527344,0.1248169,0.0841064,0.2277222,0.0841064,0.2277222l0.2845459,1.8029175l0.010376,0.0130005
		c-0.012085-0.0467529-0.2682495-4.5910034-0.2800903-4.6366577c-0.0098267-2.7261963,4.4668579-3.7148438,4.4668579-5.5950928
		c0-3.4877319,2.5730591-4.1679077,4.9000854-4.6038818c1.2094116-0.2266235,2.5491943-0.079895,4.1763916-0.0848999
		c3.381897-0.0103149,5.548584,0.2608032,6.117981,2.1278076c1.4892578,4.8828125,6.645813,5.9078979,7.3903809,7.0305786
		c0.0114746,0.0172729,0.0222778,0.0271606,0.0333862,0.0407715c0,0-0.0610962,1.6782227-0.059082,1.5567017
		c0.0045776-0.2740479-0.0872192,0.8331299-0.1593018,1.7351074c0.0811768-0.1720581,0.1989746-0.3320923,0.3543701-0.333252
		c0.0148926-0.0001221,0.0303345,0.0029297,0.0458984,0.0059204c0.0601807-1.1915894,0.131958-2.8828125,0.1723022-3.2336426
		c0.152832-0.5334473,0.2401123-1.59021,0.2901001-2.6253662c0.0412598-0.3869019,0.0670166-0.6339111,0.0670166-0.6339111
		c-0.0067139,0.0499268-0.0250854,0.1533203-0.0518188,0.2946167
		C108.8070145,44.8808174,108.8071976,43.7489815,108.8071976,43.7489815z"/>
	
		<linearGradient id="SVGID_20_" gradientUnits="userSpaceOnUse" x1="113.388298" y1="146.3365021" x2="-772.1755981" y2="-739.227417">
		<stop  offset="0" style="stop-color:#1E1F45"/>
		<stop  offset="0.9973338" style="stop-color:#04116F"/>
	</linearGradient>
	<path fill="url(#SVGID_20_)" d="M114.1353836,110.8891144h-0.291626H86.5487137H70.4088821
		c-1.0235596,0-1.8532715,0.8297729-1.8532715,1.8532715v24.9072876v0.0600586c0,0.3586426,0.1065063,0.6905518,0.2828979,0.9742432
		l0.1378174,0.1882324c0.3398438,0.4181519,0.8517456,0.6907959,1.4325562,0.6907959h42.0948486h0.7267456h0.9049072
		c0.3314209,0,0.6380005-0.0940552,0.9071655-0.24646c0.3265991-0.1848755,0.5901489-0.4624634,0.7548218-0.8013916
		c0.0201416-0.0413818,0.0411987-0.081665,0.0582886-0.1247559c0.0836182-0.2111206,0.1329956-0.4397583,0.1329956-0.6806641
		c-0.0001984,0.02388,0-0.0600586,0-0.0600586v-24.9072876
		C115.9886551,111.7188873,115.1589432,110.8891144,114.1353836,110.8891144z M92.2721024,126.782486
		c-0.8595581,0-1.5563965-0.6968384-1.5563965-1.5563965c0-0.8596191,0.6968384-1.5564575,1.5563965-1.5564575
		c0.8596191,0,1.5564575,0.6968384,1.5564575,1.5564575C93.8285599,126.0856476,93.1317215,126.782486,92.2721024,126.782486z"/>
	<path fill="#FFFFFF" d="M92.2721024,126.782486c0.8596191,0,1.5564575-0.6968384,1.5564575-1.5563965
		c0-0.8596191-0.6968384-1.5564575-1.5564575-1.5564575c-0.8595581,0-1.5563965,0.6968384-1.5563965,1.5564575
		C90.7157059,126.0856476,91.4125443,126.782486,92.2721024,126.782486z"/>
	
		<linearGradient id="SVGID_21_" gradientUnits="userSpaceOnUse" x1="124.9339676" y1="139.3344116" x2="124.9339676" y2="76.3839417">
		<stop  offset="0" style="stop-color:#164487"/>
		<stop  offset="0.4402282" style="stop-color:#164194"/>
	</linearGradient>
	<polygon fill="url(#SVGID_21_)" points="124.2705154,137.6496735 125.5974197,137.6496735 124.6511307,123.6737823 	"/>
	
		<linearGradient id="SVGID_22_" gradientUnits="userSpaceOnUse" x1="-7.0674849" y1="210.4233093" x2="44.8037987" y2="120.5796127">
		<stop  offset="0.0026042" style="stop-color:#5CB5D0"/>
		<stop  offset="1" style="stop-color:#5BA8C5"/>
	</linearGradient>
	<path fill="url(#SVGID_22_)" d="M58.7392616,128.7353668c-0.043457-0.0299072-0.0835571-0.0730591-0.1289673-0.0947266
		c-1.0237427-0.4887695-2.5129395-0.4888306-4.1922607-0.569458c-17.0327759-0.817627-17.953186-1.5113525-23.4588623-1.8230591
		c-0.4047852-0.0229492-0.8043213-0.0510254-1.2010498-0.0809326c-0.2478027-0.0187378-0.4938354-0.038147-0.7381592-0.0587158
		c-1.7330322-0.1460571-3.3764648-0.3302002-4.8867798-0.4393921c-4.1329956-0.2988281-7.2670288-0.0198975-8.5238028,3.1968384
		c-0.3913574,1.0015869-0.6048584,2.2816162-0.6048584,3.9257202c0,0.1191406,0.0298462,0.230957,0.0424805,0.3470459
		c0.0082397,0.0753784,0.0142212,0.1513672,0.0276489,0.2254639c0.3265381,1.7996216,2.1768789,3.2186279,4.9869375,4.2855225
		c3.4326782,1.3033447,8.2783203,2.0821533,13.5005493,2.3885498c6.7396851,0.3955078,14.0803223,0.005188,19.7797852-1.057373
		c1.9639282-0.3662109,3.7345581-0.8101196,5.2132568-1.3311768c0.3205566-0.1129761,0.6295776-0.2289429,0.9220581-0.348938
		c0.0238037-0.0097656,0.0514526-0.0185547,0.0750732-0.0283813
		C60.6170082,136.8299103,60.3955116,129.8764191,58.7392616,128.7353668z"/>
	
		<linearGradient id="SVGID_23_" gradientUnits="userSpaceOnUse" x1="-21800.2070312" y1="140.3821564" x2="13798.6123047" y2="140.3821564">
		<stop  offset="0" style="stop-color:#317FE8"/>
		<stop  offset="0.3135964" style="stop-color:#2770DF"/>
		<stop  offset="0.9986979" style="stop-color:#1454CE"/>
	</linearGradient>
	<path fill="url(#SVGID_23_)" d="M188.9603882,137.6496735h-9.9260254h-11.8999634h-1.4035034h-1.3751831h-32.3876953h-6.3705978
		h-1.3269043h-4.203125l0.0002441,0.0013428c0.3994141,0.012146,0.6199341,0.0800171,0.388855,0.1449585l-0.3434448,0.0964355
		l-1.383728,0.3886719l-0.9424438,0.2646484l-0.4748535,0.1334229l-2.2694702,0.6373901
		c-0.269165,0.1524048-0.5757446,0.24646-0.9071655,0.24646h-0.9049072l-0.4208374,0.0076294
		c-0.1109009,0.0020142-0.2122803-0.0016479-0.3059082-0.0076294H70.4088821c-0.5808105,0-1.0927124-0.272644-1.4325562-0.6907959
		c-0.0491943-0.0604858-0.0964966-0.1217041-0.1378174-0.1882324c-0.1763916-0.2836914-0.2828979-0.6156006-0.2828979-0.9742432
		v-0.0600586h-2.2249756h-1.5403442c-1.0510292,0.2109985-2.3907509,0.1609497-3.5636635,0h-2.6714478
		c-1.4786987,0.5210571-3.2493286,0.9649658-5.2132568,1.3311768c-5.6994629,1.062561-13.0401001,1.4528809-19.7797852,1.057373
		c-5.222229-0.3063965-10.0678711-1.0852051-13.5005493-2.3885498H4.8671312c-0.3981934,0-0.7210083,0.3228149-0.7210083,0.7210693
		v4.0228882c0,0.3981934,0.3228149,0.7210083,0.7210083,0.7210083h31.3324585h123.6416626h29.1191406
		c0.3981934,0,0.7210083-0.3228149,0.7210083-0.7210083v-4.0228882
		C189.6813965,137.9724884,189.3585815,137.6496735,188.9603882,137.6496735z"/>
	
		<linearGradient id="SVGID_24_" gradientUnits="userSpaceOnUse" x1="51.2089958" y1="81.1283798" x2="51.2089958" y2="-372.9638977">
		<stop  offset="0" style="stop-color:#3A65C8"/>
		<stop  offset="0.9986979" style="stop-color:#1454CE"/>
	</linearGradient>
	<path fill="url(#SVGID_24_)" d="M67.1248856,49.8142281c0,0-0.8314819-7.4835815-3.3260536-9.1466064
		c-2.6605835-1.7738037-4.6387939-1.1711426-5.288208-0.7224121c-0.4499512,0.3109741-1.0460205,0.2709961-1.4830933-0.0579224
		c-1.4564819-1.0958252-7.6884155-2.5457153-10.6903687-2.5457153c-7.4835815,0-5.8206177,4.9890747-6.6520996,4.9890747
		c-4.2398682,0-3.7468872,2.1246338-4.1575317,5.8205566c-0.4100952,3.6904907-0.2120972,6.7490845,0.0620117,8.6467285
		c0.0137939,0.0953369,0.0267334,0.2019043,0.0408325,0.2911987c0.0071411,0.0602417,0.0195923,0.1322021,0.0274048,0.1940918
		c0.0536499,0.4237061,0.1265259,0.8882446,0.2124634,1.3794556c0.3477173,1.9875488,0.947876,4.460083,1.7406006,7.0115929
		c1.6135254,5.1931763,4.0048218,10.6556396,6.6102295,12.7339478c0.822998,0.6565552,1.6719971,1.1715088,2.5306396,1.5756226
		c3.538147,1.6651611,7.2531128,1.2822266,10.1373901-0.4368286c0.5432129-0.3237915,1.0587158-0.6915894,1.5360107-1.1047974
		c2.8374634-2.4562988,5.170105-7.9537354,6.6024818-13.0063477c0.5747681-2.027523,1.0088501-3.9855919,1.2658081-5.6434898
		c0.0955811-0.6166382,0.2246704-1.7054443,0.3526001-2.8637085c0.0269165-0.2434082,0.0537109-0.4887085,0.0802002-0.7346191
		c0.1705933-0.6359253,0.2680664-1.8956909,0.3239136-3.1295776c0.0460815-0.4613037,0.0747681-0.7557373,0.0747681-0.7557373
		c-0.0074463,0.0595703-0.0279541,0.1827393-0.0578003,0.3511963
		C67.1247635,51.1634712,67.1248856,49.8142281,67.1248856,49.8142281z M53.9359779,76.3853912
		c-0.2272949,0.2319336-0.4627075,0.4205933-0.7026978,0.5774536c-0.7905884,0.5166016-1.637207,0.6318359-2.4678345,0.3897705
		c-0.555603-0.1619873-1.102356-0.4837646-1.619873-0.9532471c-0.3303833-0.2996826-0.6498413-0.6521606-0.949646-1.0686035
		l6.4562988,0.1580811C54.4242592,75.8349152,54.18433,76.1319733,53.9359779,76.3853912z M66.0595169,57.8855171
		c-1.1968994,5.8232422-4.106144,11.9457359-6.4182167,12.7164879c-2.4945068,0.8314819-3.3260498-2.4945679-8.3151245-2.4945679
		c-4.2398682,0-4.9890137,3.3260498-9.1466064,2.4945679c-2.5515137-0.5103149-4.3269653-5.8306885-5.2833252-9.4553795
		c-0.2240601-0.8493042-0.4037476-1.6065063-0.5372314-2.185791c-0.0955811-0.414917-0.1870728-0.7971802-0.2736816-1.1528931
		c-0.0004272-0.1224365,0.013855-0.2349854,0.0233154-0.350769c0.2421875-2.9577637,3.576416-3.822876,3.576416-5.9799194
		c0-4.1575317-0.1039429-5.3009033,2.4945068-5.8205566c1.3505859-0.2701416,7.2857056-1.2808838,9.1027832-1.2868042
		c3.7764893-0.0123291,7.7230835,0.7241821,8.3589478,2.9498291c1.6630249,5.8205566,5.8205605,7.8082886,6.6521034,9.1466064
		c0.0127563,0.0205688,0.0247803,0.0323486,0.0372314,0.048584C66.1953812,57.2051582,66.0886307,57.7439766,66.0595169,57.8855171z
		"/>
	
		<linearGradient id="SVGID_25_" gradientUnits="userSpaceOnUse" x1="51.0790443" y1="1696.9222412" x2="51.0790443" y2="85.2646866">
		<stop  offset="0" style="stop-color:#5AB4D0"/>
		<stop  offset="0.9987599" style="stop-color:#81C9D0"/>
	</linearGradient>
	<path fill="url(#SVGID_25_)" d="M72.795784,85.6699982c-0.5175781-0.0446167-1.9389038-0.0720215-3.7069092-0.0883789
		c-4.4528809-0.0412598-11.1105995-0.0124512-11.1105995-0.0124512c-0.6074829,1.2731934-2.2241211,1.4799805-3.6165771,1.4815674
		c0.128418,0.078064,0.2528687,0.1585693,0.3668823,0.2451172c2.0634155,1.5668945,1.7944336,4.4622192-0.0078735,6.3595581
		c-0.5065308,0.5332031,5.2993774,24.526001,5.4219971,25.3582764c0.7251587,3.892334-5.1478271,7.9902954-5.1478271,7.9902954
		s-6.5595093-3.5899048-6.3008423-7.7124023c-0.0392456-1.2836914,3.7556152-25.0595703,3.0449219-25.6914062
		c-2.4168701-2.1487427-2.4890137-3.9978638-0.897583-6.1610718c0.0720215-0.0978394,0.1429443-0.1954956,0.2216797-0.2946777
		c0,0,0.0368652-0.0765381,0.0663452-0.1383057c-1.9584961-0.0214844-4.1424561-0.2021484-4.7922363-1.4369507
		c0,0-13.9971313,0.2947388-15.8250122,0.2810669c-7.2836304-0.0543823-10.6925049,11.7501831-12.6187744,23.9542847
		c-1.0936279,6.9285889-1.7102661,13.9718018-2.2839956,19.0614014c1.2567739-3.2167358,4.3908072-3.4956665,8.5238028-3.1968384
		c1.5103149,0.1091919,3.1537476,0.293335,4.8867798,0.4393921l0.8398438-8.8053589l-0.1016846,8.8640747
		c0.3967285,0.0299072,0.7962646,0.0579834,1.2010498,0.0809326c5.5056763,0.3117065,6.4260864,1.0054321,23.4588623,1.8230591
		c1.6793213,0.0806274,3.1685181,0.0806885,4.1922607,0.569458c0.0454102,0.0216675,0.0855103,0.0648193,0.1289673,0.0947266
		c1.7781372-0.2967529,4.7684937-0.6802979,5.6954384-0.0947266c0.5625,0.3553467,0.2234497,0.8883667,0.8824463,1.3310547
		c0.9418945,0.6326294,0.7748413,1.3621826,0.6879272,1.8988037c0.6029663,0.434082,0.7081909,1.5280762,0.4824219,1.784729
		c0.0671997,0.1268311,0.1248779,0.2446899,0.1696167,0.3607178c0.1019287,0.2642822,0.1047974,0.5297852-0.0444336,0.8626709
		c-0.0346069,0.0770874-0.0559082,0.1481323-0.1101685,0.2346802c-0.1466675,0.2338867-0.0325928,0.5608521,0.0296631,0.8601074
		c0.0266113,0.1277466,0.0452271,0.2514038,0.0276489,0.3590088c-0.0134277,0.0820312-0.0560303,0.1470947-0.0835571,0.2210083
		c-0.2181396,0.5864868-0.8505249,0.9285278-1.6859741,1.0962524h1.5403442h2.2249756v-24.9072876
		c0-1.0234985,0.8297119-1.8532715,1.8532715-1.8532715h16.1398315
		C84.6693802,98.1752472,81.2901688,86.4024811,72.795784,85.6699982z"/>
	
		<linearGradient id="SVGID_26_" gradientUnits="userSpaceOnUse" x1="54.4456558" y1="3590.3283691" x2="54.4456558" y2="158.6916656">
		<stop  offset="0" style="stop-color:#008EAE"/>
		<stop  offset="0.36731" style="stop-color:#11829B"/>
		<stop  offset="1" style="stop-color:#2A6F7F"/>
	</linearGradient>
	<path fill="url(#SVGID_26_)" d="M60.142704,119.0136871c-0.1226196-0.8322754-5.9285278-24.8250732-5.4219971-25.3582764
		c1.8023071-1.8973389,2.0712891-4.7926636,0.0078735-6.3595581c-0.1140137-0.0865479-0.2384644-0.1670532-0.3668823-0.2451172
		c-0.0229492-0.0139771-0.0422363-0.0302124-0.0656738-0.0438843l-3.1352539-0.0689697
		c0.0112915-0.0217285-0.0079346,0.019104-0.0313721,0.0682373c-0.02948,0.0617676-0.0663452,0.1383057-0.0663452,0.1383057
		c-0.0787354,0.0991821-0.1496582,0.1968384-0.2216797,0.2946777c-1.5914307,2.163208-1.5192871,4.0123291,0.897583,6.1610718
		c0.7106934,0.6318359-3.0841675,24.4077148-3.0449219,25.6914062c-0.258667,4.1224976,6.3008423,7.7124023,6.3008423,7.7124023
		S60.8678627,122.9060211,60.142704,119.0136871z"/>
	
		<linearGradient id="SVGID_27_" gradientUnits="userSpaceOnUse" x1="146.4390564" y1="500.776886" x2="146.4390564" y2="46.3623581">
		<stop  offset="0" style="stop-color:#277081"/>
		<stop  offset="0.0758406" style="stop-color:#257284"/>
		<stop  offset="0.9973338" style="stop-color:#0D84A0"/>
	</linearGradient>
	<path fill="url(#SVGID_27_)" d="M175.2016602,118.4945831c-1.8407593-12.9275513-3.7976074-26.5933228-11.1487427-31.6560669
		c-0.2805786-0.1932373-0.9656372-0.324646-1.8934326-0.4108887l0.4379883,3.5038452l-5.8632812,0.255249l-2.5580444,0.1113281
		c-0.6508789-1.37146-1.2139282-2.5557861-1.7016602-3.5979614l-1.0402222,6.1622925l-0.1586914,0.9401245
		c-0.1652222,0.9788818-1.253479,1.4952393-2.1162109,1.0042114l-0.7006226-0.4421387l-1.4622803-0.9227905l-3.9425049-2.487915
		l-4.1940308,2.8045044l-1.3935547,0.9318848c-0.7637939,0.5767822-1.8656616,0.2932739-2.2561646-0.5805664l-3.2719116-7.3217163
		c-0.3729858,1.0216675-0.8052979,1.9533691-1.2408447,2.7868652c-0.1957397,0.3746948-0.3919067,0.7347412-0.5835571,1.0657959
		h-5.8335495h-3.7276611c0,0,0.1126099-0.8743286,0.2868042-3.2911987
		c-5.2109375,3.27948-6.6487427,13.2214966-6.9957275,23.5396729h0.291626c1.0235596,0,1.8532715,0.8297729,1.8532715,1.8532715
		v24.9072876h2.6851807h0.973999l0.2436523-0.0036621c0.0487061-0.0007324,0.0847778,0.0028687,0.1295776,0.0036621h0.0463257
		h4.203125l0.3806152-13.9758911l0.9462891,13.9758911h6.3705978h32.3876953h1.3751831l-0.1478271-1.6824951l-1.0800781-12.293396
		l2.0562134,10.9207764l0.5751953,3.0551147h11.8999634C177.2015381,132.5352936,176.2177124,125.6303253,175.2016602,118.4945831z"
		/>
	<linearGradient id="SVGID_28_" gradientUnits="userSpaceOnUse" x1="95.1263809" y1="284.5619507" x2="95.1263809" y2="75.5713348">
		<stop  offset="0" style="stop-color:#164487"/>
		<stop  offset="0.4402282" style="stop-color:#164194"/>
	</linearGradient>
	<path fill="url(#SVGID_28_)" d="M117.0045853,76.9375763c-1.4041748-0.967041-12.9168701-0.3907471-14.4597778-0.3088989
		c-0.1112671,0.0059204-0.1749268,0.0094604-0.1749268,0.0094604c-1.2705688,2.4145508-3.6103516,3.6057739-7.0143433,3.6752319
		c-4.109436,0.0838623-6.1615601-2.1092529-6.9856567-3.6752319c0,0-0.0732422-0.0003052-0.1975708-0.0006104
		c-1.6207886-0.0040894-13.0343018-0.0073242-14.2280884,0.7025146c-2.225769,1.3233643-3.7768555,4.2884521-4.8553467,8.2415771
		c1.7680054,0.0163574,3.1893311,0.0437622,3.7069092,0.0883789c8.4943848,0.7324829,11.8735962,12.505249,13.7529297,25.2191162
		h27.2950439c0.3469849-10.3181763,1.78479-20.2601929,6.9957275-23.5396729
		c0.0930176-1.2905273,0.2038574-3.0378418,0.3244019-5.3147583
		C120.0035477,79.8275909,118.6417313,78.0650787,117.0045853,76.9375763z"/>
	
		<linearGradient id="SVGID_29_" gradientUnits="userSpaceOnUse" x1="142.2063904" y1="96.4848557" x2="142.2063904" y2="85.9929886">
		<stop  offset="0.0026662" style="stop-color:#7FC7D0"/>
		<stop  offset="0.8498815" style="stop-color:#63B8D0"/>
		<stop  offset="1" style="stop-color:#5DB5D0"/>
	</linearGradient>
	<path fill="url(#SVGID_29_)" d="M152.3532104,86.4404449c-0.005249-0.0112915-0.0106812-0.0228271-0.0159302-0.0340576
		c-0.123291,0.0046997-0.2471313,0.0093384-0.3648682,0.0140381l-2.5541992-0.1342163c0,0-2.6400757,3.5997314-6.7571411,3.5253296
		c-4.1425781-0.0747681-7.0499878-2.7330322-7.2428589-3.5253296l-3.3601685,0.1506958
		c-0.0130005,0.0378418-0.0256348,0.0762939-0.0388184,0.1138916c-0.0275879,0.0783691-0.0526733,0.15979-0.0809326,0.2371826
		l3.2719116,7.3217163c0.3905029,0.8738403,1.4923706,1.1573486,2.2561646,0.5805664l1.3935547-0.9318848l4.1940308-2.8045044
		l3.9425049,2.487915l1.4622803,0.9227905l0.7006226,0.4421387c0.8627319,0.4910278,1.9509888-0.0253296,2.1162109-1.0042114
		l0.1586914-0.9401245l1.0402222-6.1622925C152.4333496,86.6121979,152.3932495,86.5261993,152.3532104,86.4404449z"/>
</g>
</svg>
