<?xml version="1.0" encoding="utf-8"?>
<!-- Generator: Adobe Illustrator 24.1.0, SVG Export Plug-In . SVG Version: 6.00 Build 0)  -->
<svg version="1.1" xmlns="http://www.w3.org/2000/svg" xmlns:xlink="http://www.w3.org/1999/xlink" x="0px" y="0px"
	 viewBox="0 0 640.8007812 1074.9260254" enable-background="new 0 0 640.8007812 1074.9260254" xml:space="preserve">
<g id="Ebene_2">
	
		<linearGradient id="SVGID_1_" gradientUnits="userSpaceOnUse" x1="281.4074707" y1="195.1089935" x2="801.3539429" y2="715.055481">
		<stop  offset="0" style="stop-color:#54CEC4"/>
		<stop  offset="1" style="stop-color:#F7FFFE"/>
	</linearGradient>
	<path opacity="0.268" fill="url(#SVGID_1_)" enable-background="new    " d="M638.9794922,22.878149
		c0,0-152.9806824-36.1207848-227.732605,37.9268265s-10.7368774,144.7716675-184.9316864,175.1217499
		C72.3942719,262.7444763,15.8438063,407.8270569,95.8109741,477.3595581s274.0588684,6.5252075,256.6583252,221.8571777
		c-14.9060059,184.461792,174.8323364,216.553772,287.109314,247.9580688L638.9794922,22.878149z"/>
	
		<linearGradient id="SVGID_2_" gradientUnits="userSpaceOnUse" x1="415.1440735" y1="647.1521606" x2="622.5269165" y2="647.1521606">
		<stop  offset="0.0012814" style="stop-color:#1968FF"/>
		<stop  offset="0.7033775" style="stop-color:#AEC4EB"/>
		<stop  offset="1" style="stop-color:#EDF1F7"/>
	</linearGradient>
	<path opacity="0.128" fill="url(#SVGID_2_)" enable-background="new    " d="M636.5554199,220.9755096
		c0,0-263.914093,115.993515-234.0595093,298.7645264c16.5213013,101.144104,125.8017578,173.0656128,91.3529663,317.4608765
		s57.0899048,230.1734619,141.4301147,236.1279297L636.5554199,220.9755096z"/>
</g>
<g id="Ebene_1">
</g>
</svg>
